<svg version="1.1" id="Layer_1" xmlns="http://www.w3.org/2000/svg" xmlns:xlink="http://www.w3.org/1999/xlink" x="0px" y="0px"
	 width="100%" viewBox="0 0 1481 720" enable-background="new 0 0 1481 720" xml:space="preserve">
<path fill="#D9DAD8" opacity="1.000000" stroke="none" 
	d="
M995.000000,721.000000 
	C663.370850,721.000000 332.241760,721.000000 1.056316,721.000000 
	C1.056316,481.064758 1.056316,241.129517 1.056316,1.097128 
	C494.545929,1.097128 988.091858,1.097128 1481.818848,1.097128 
	C1481.818848,240.999893 1481.818848,480.999939 1481.818848,721.000000 
	C1319.795898,721.000000 1157.647949,721.000000 995.000000,721.000000 
M930.108887,370.920166 
	C930.108887,370.920166 930.140076,370.822144 930.077393,371.558105 
	C930.802551,372.666779 931.527771,373.775452 932.152832,374.882935 
	C932.152832,374.882935 932.181763,374.786987 932.100525,375.534088 
	C933.033081,377.023071 933.965637,378.512054 935.138611,380.269989 
	C935.138611,380.269989 935.129700,380.630646 935.140991,381.316772 
	C935.515320,381.848328 935.889648,382.379883 936.145691,382.896210 
	C936.145691,382.896210 936.186096,382.784027 936.087830,383.584167 
	C937.371826,385.729126 938.655823,387.874084 940.428284,390.500122 
	C947.991760,405.121429 956.067017,419.509033 962.896545,434.465485 
	C966.173645,441.642212 970.111633,444.219208 977.852295,443.576172 
	C986.886658,442.825684 996.031250,443.400879 1005.930542,443.400879 
	C990.732117,413.951935 975.977661,385.363190 961.844604,357.978455 
	C970.409790,351.787231 979.330078,347.085693 985.975281,340.191254 
	C1002.451660,323.096863 1003.390564,301.772980 999.257935,279.847412 
	C996.500305,265.217010 988.342529,253.960205 975.950073,245.763046 
	C967.451843,240.141663 957.905396,237.401215 947.722168,234.987488 
	C944.719055,234.325211 941.719177,233.104935 938.712402,233.087982 
	C912.012024,232.937500 885.310364,232.970551 858.609558,233.074219 
	C857.041809,233.080292 855.478333,234.162674 853.934631,234.912369 
	C853.934631,234.912369 853.765198,234.920532 853.058655,235.248444 
	C852.376343,241.763718 851.160706,248.276169 851.126160,254.794876 
	C851.060547,267.183807 851.807800,279.574646 851.962646,291.967865 
	C852.128296,305.226624 852.000183,318.489105 851.999939,331.749939 
	C851.999817,340.343597 851.998779,348.937286 851.998596,357.530945 
	C851.998413,370.863312 852.011902,384.195740 851.991272,397.528076 
	C851.984131,402.125183 851.898621,406.722229 851.837646,411.319153 
	C851.719299,420.235931 851.833740,429.165192 851.369934,438.064148 
	C851.133118,442.609222 852.582642,444.944153 857.321289,444.980652 
	C865.820190,445.046143 874.321350,445.077118 882.817993,444.925079 
	C884.254272,444.899414 885.672913,443.884247 887.147766,443.082642 
	C887.147766,443.082642 887.394165,443.113495 888.060974,442.729614 
	C888.373962,440.822754 888.953674,438.916626 888.959167,437.008850 
	C889.023071,414.847565 888.982300,392.686035 889.013428,370.524628 
	C889.021362,364.855713 890.837402,363.056427 896.469360,363.011658 
	C902.634216,362.962646 908.808716,363.204163 914.961853,362.931702 
	C919.419922,362.734314 923.139343,363.428131 925.824402,367.431000 
	C926.393738,368.279816 928.049133,368.400146 929.101624,368.914185 
	C929.101624,368.914185 929.153442,368.808350 929.147949,369.450958 
	C929.502319,369.944702 929.856689,370.438446 930.108887,370.920166 
M577.709717,312.151184 
	C577.784241,310.440674 577.858765,308.730194 578.492126,306.396210 
	C578.625366,294.164215 578.771240,281.932281 578.851746,269.699921 
	C578.855469,269.131378 578.274536,268.558929 577.757874,267.341064 
	C577.827576,266.898773 577.897278,266.456451 578.369568,265.710571 
	C578.279602,265.143188 578.189697,264.575775 578.522400,263.273926 
	C598.295532,263.273926 618.068665,263.273926 637.926270,263.273926 
	C637.926270,253.363953 637.926270,244.147842 637.926270,234.828247 
	C586.152100,234.828247 534.710327,234.828247 483.089691,234.828247 
	C483.089691,244.301987 483.089691,253.528137 483.089691,263.223572 
	C503.303223,263.223572 523.214905,263.223572 543.621399,263.223572 
	C543.621399,323.434875 543.621399,383.177094 543.621399,443.324646 
	C554.754333,443.324646 565.391479,443.347992 576.027771,443.267822 
	C576.680542,443.262939 577.327209,442.440033 578.520508,441.368622 
	C578.678467,440.563690 578.973450,439.758911 578.974426,438.953796 
	C579.000427,416.861023 579.013428,394.768127 578.952454,372.675507 
	C578.949036,371.443848 578.293030,370.213928 577.716431,368.120483 
	C577.792297,365.752289 577.868103,363.384094 578.498657,360.390991 
	C578.313904,354.255463 578.129150,348.119934 577.730530,341.339752 
	C577.801758,340.898468 577.872986,340.457153 578.498657,339.390106 
	C578.665771,333.960663 578.995300,328.529572 578.940369,323.102386 
	C578.906128,319.725677 578.290283,316.354919 577.709717,312.151184 
M341.713287,237.246735 
	C341.010681,236.354813 340.320404,234.697449 339.603668,234.685944 
	C329.173096,234.518326 318.738953,234.570938 308.052155,234.570938 
	C308.052155,237.069260 308.052185,238.889542 308.052155,240.709808 
	C308.051666,284.170502 308.011749,327.631287 308.093445,371.091827 
	C308.105621,377.571075 308.267792,384.102875 309.083710,390.518402 
	C312.264374,415.528473 325.091492,433.215454 349.472809,441.256989 
	C370.794800,448.289490 392.472687,448.375427 413.806610,441.570862 
	C433.960876,435.142517 447.096313,421.325287 452.479492,400.689819 
	C453.899200,395.247650 454.391937,389.563660 456.007782,383.675385 
	C456.338745,382.117828 456.957123,380.560638 456.958893,379.002686 
	C457.010529,333.034485 457.013611,287.066193 456.951416,241.098038 
	C456.949097,239.382797 456.216736,237.668549 455.405548,235.365540 
	C444.369019,235.365540 433.332458,235.365540 421.980865,235.365540 
	C421.980865,236.792648 421.981232,238.441422 421.980804,240.090210 
	C421.969727,282.694000 421.995789,325.297913 421.905945,367.901520 
	C421.893005,374.044128 421.636475,380.220856 420.950134,386.320740 
	C419.065552,403.071198 410.207367,413.022034 393.696594,416.316376 
	C387.910065,417.470917 381.759064,417.671143 375.857452,417.220459 
	C354.052643,415.555237 342.016296,402.052429 342.584167,379.320496 
	C342.721466,378.508850 342.978485,377.697235 342.978851,376.885529 
	C342.999329,331.983490 343.007874,287.081451 342.954987,242.179474 
	C342.953339,240.781021 342.293793,239.383347 341.713287,237.246735 
M1334.054932,234.494202 
	C1333.703369,236.380951 1333.050415,238.266861 1333.045288,240.154541 
	C1332.973145,266.786682 1332.989014,293.419037 1332.063721,320.235077 
	C1306.042969,320.149445 1280.022217,320.063782 1253.748413,319.569275 
	C1253.540649,319.316833 1253.287598,319.123596 1252.784546,318.174530 
	C1252.850708,316.783630 1252.916748,315.392761 1253.521240,313.367889 
	C1253.677368,312.562469 1253.968994,311.757202 1253.969849,310.951569 
	C1253.995483,287.197632 1254.007812,263.443634 1253.948975,239.689804 
	C1253.945923,238.456726 1253.297241,237.225250 1252.540283,235.370041 
	C1248.785767,235.128738 1245.033691,234.734421 1241.276367,234.678543 
	C1233.874268,234.568466 1226.469604,234.646118 1219.200073,234.646118 
	C1219.200073,304.641876 1219.200073,373.831879 1219.200073,443.049713 
	C1230.483276,443.049713 1241.409790,443.049713 1252.752686,443.049713 
	C1252.752686,411.673615 1252.752686,380.595551 1252.752686,349.260803 
	C1280.065552,349.260803 1306.957397,349.260803 1334.278198,349.260803 
	C1334.278198,380.566833 1334.278198,411.636871 1334.278198,443.030518 
	C1345.752930,443.030518 1356.799194,443.030518 1367.981567,443.030518 
	C1367.981567,373.505035 1367.981567,304.276703 1367.981567,234.175446 
	C1356.783203,234.175446 1345.838013,234.175446 1334.054932,234.494202 
M1170.317383,255.209854 
	C1165.025513,250.695847 1160.193970,245.442337 1154.354614,241.808151 
	C1137.616089,231.390854 1118.965820,230.198196 1099.855469,231.906464 
	C1067.349854,234.812103 1044.640137,253.099594 1037.004517,284.874298 
	C1028.438232,320.522308 1029.037598,356.596863 1036.623535,392.372009 
	C1040.819824,412.162231 1051.652466,427.879303 1070.064697,437.325470 
	C1087.242310,446.138306 1105.713013,447.603912 1124.580811,445.459381 
	C1139.282593,443.788391 1152.784302,439.006958 1163.950317,428.882660 
	C1178.161499,415.997559 1184.030396,399.342682 1186.074829,380.476013 
	C1174.489258,379.206787 1163.462646,377.998810 1152.223877,376.767548 
	C1151.734619,379.492615 1151.331543,381.752960 1150.922607,384.012207 
	C1148.223511,398.921570 1141.414307,410.702972 1126.046875,415.460541 
	C1115.777344,418.639801 1105.362793,418.473663 1095.049561,415.321777 
	C1078.492432,410.261627 1071.581299,397.322510 1069.098999,381.753296 
	C1064.774902,354.631470 1064.483765,327.272156 1068.303833,300.099060 
	C1072.431519,270.737396 1087.682739,258.418945 1115.947510,260.018250 
	C1132.044556,260.929047 1144.312500,270.526825 1148.936157,285.997314 
	C1150.070312,289.792267 1150.796021,293.709320 1151.823975,298.053375 
	C1163.000000,296.997833 1174.167603,295.943085 1185.328247,294.889008 
	C1184.233643,280.663086 1179.343750,267.638184 1170.317383,255.209854 
M151.974762,402.520355 
	C152.754974,399.630646 153.765182,396.779510 154.258255,393.841614 
	C154.901932,390.006561 156.808701,388.854553 160.684265,388.983276 
	C169.938019,389.290588 179.208893,389.082397 188.513535,389.082397 
	C188.513535,379.615082 188.513535,370.729889 188.513535,361.178772 
	C180.184387,361.178772 172.160187,361.178772 163.784775,361.178772 
	C164.360001,358.862427 164.704712,357.250916 165.160828,355.671539 
	C171.249664,334.588074 177.183411,313.457520 183.528412,292.451233 
	C186.585022,282.331818 189.206711,272.326965 187.242111,261.632019 
	C186.862808,259.567230 187.234695,257.303772 187.567368,255.180115 
	C188.616104,248.485367 189.810959,241.813538 191.043594,234.579208 
	C184.510986,234.579208 178.373718,234.860245 172.278198,234.476929 
	C168.439651,234.235550 167.179321,235.860046 166.186493,239.195435 
	C146.406082,305.646149 126.523659,372.066528 106.666786,438.494507 
	C106.227455,439.964203 105.845505,441.451019 105.316216,443.366180 
	C116.663452,443.366180 127.148308,443.487671 137.622375,443.206573 
	C138.877762,443.172852 140.751251,441.158752 141.191833,439.713165 
	C144.875961,427.625671 148.291626,415.456329 151.974762,402.520355 
M666.905762,375.290222 
	C660.112610,397.803314 653.319519,420.316376 646.353760,443.401489 
	C657.766602,443.401489 668.246948,443.521301 678.717102,443.247620 
	C680.002991,443.213989 681.957031,441.292328 682.378906,439.880371 
	C686.853699,424.903290 691.300293,409.909485 695.244324,394.787201 
	C696.451843,390.157104 698.422913,388.798676 703.044922,389.003571 
	C711.779602,389.390717 720.543701,389.115417 729.348511,389.115417 
	C729.348511,379.524506 729.348511,370.610687 729.348511,361.191315 
	C721.140381,361.191315 713.246155,361.191315 705.038391,361.191315 
	C705.486267,359.363739 705.754028,358.074646 706.118530,356.813446 
	C713.045105,332.845123 720.151245,308.926514 726.791321,284.879120 
	C728.304932,279.397430 728.334778,273.483551 728.835388,267.750092 
	C729.525940,259.841858 729.932922,251.908752 730.632141,244.001434 
	C730.900452,240.967834 731.639160,237.975845 732.236145,234.547653 
	C725.486084,234.547653 719.482300,234.807663 713.514954,234.453827 
	C709.703918,234.227829 708.508057,235.795853 707.498535,239.202362 
	C694.123962,284.332550 680.580750,329.412720 666.905762,375.290222 
M226.678329,249.807938 
	C225.059830,244.770004 223.441315,239.732071 221.901474,234.938995 
	C217.647415,234.938995 213.879562,234.938995 209.981812,234.938995 
	C206.881302,246.628387 203.778015,258.014587 200.911896,269.460205 
	C200.463821,271.249603 200.778519,273.395233 201.277008,275.230377 
	C205.330551,290.152710 209.505936,305.041931 213.656113,319.937927 
	C217.442795,333.529419 221.244385,347.116760 225.203339,361.292908 
	C217.495682,361.292908 210.248032,361.292908 202.854416,361.292908 
	C202.854416,370.827850 202.854416,379.856720 202.854416,389.160217 
	C213.035629,389.160217 222.834946,389.160217 232.758881,389.160217 
	C233.267761,390.795319 233.735886,392.204102 234.145386,393.629700 
	C238.505829,408.810577 242.798721,424.011383 247.297409,439.151093 
	C247.766296,440.729065 249.407257,443.121765 250.558838,443.153351 
	C261.633545,443.457306 272.719971,443.335388 284.298889,443.335388 
	C265.028687,378.632599 245.960144,314.606842 226.678329,249.807938 
M812.299072,398.107452 
	C796.913879,346.644379 781.532898,295.180023 766.139587,243.719345 
	C763.330383,234.328079 763.306946,234.330338 753.590942,234.722000 
	C753.135132,234.740387 752.688049,234.973969 752.158997,235.130341 
	C748.887878,246.702560 745.563354,258.196625 742.458984,269.749786 
	C742.021729,271.376984 742.378113,273.370880 742.843994,275.063782 
	C748.051025,293.983185 753.352722,312.876526 758.626709,331.777496 
	C761.330750,341.468597 764.030151,351.160950 766.909851,361.491913 
	C759.234558,361.491913 752.162903,361.491913 745.170288,361.491913 
	C745.170288,370.940521 745.170288,379.861511 745.170288,389.091309 
	C753.451721,389.091309 761.424072,389.318573 769.373779,388.993011 
	C773.202026,388.836243 774.862793,389.982269 775.889526,393.742645 
	C780.093201,409.138519 784.604675,424.451141 789.129822,439.756897 
	C789.526489,441.098389 790.825195,443.186707 791.742126,443.206482 
	C802.844727,443.446014 813.954346,443.361786 825.847412,443.361786 
	C821.282104,428.044006 816.933838,413.454437 812.299072,398.107452 
M727.436401,141.757065 
	C712.792542,146.731155 704.894836,157.610992 704.896484,172.779053 
	C704.897888,185.913254 710.956848,195.550064 722.584229,201.133194 
	C735.077820,207.132233 747.328979,205.775833 758.016357,196.771408 
	C767.764587,188.558243 770.926392,177.591888 768.467285,165.261627 
	C764.838501,147.066452 745.232910,136.380936 727.436401,141.757065 
M401.259369,555.286621 
	C404.290894,561.403625 407.242218,567.562012 410.373688,573.627441 
	C414.519958,581.658386 412.938477,582.358887 423.894257,581.349060 
	C428.281403,580.944702 428.950348,579.345764 428.928589,575.549805 
	C428.787537,550.901245 428.849579,526.251587 428.826538,501.602325 
	C428.821320,496.033020 427.609436,494.898041 422.099670,495.402832 
	C420.504272,495.548950 418.943054,496.067963 416.961243,496.505402 
	C416.961243,517.460876 416.961243,538.164795 416.961243,558.868713 
	C415.247162,557.791626 414.281464,556.509216 413.581177,555.095459 
	C405.309448,538.396179 397.011505,521.709290 388.860535,504.950989 
	C384.223297,495.416901 384.342865,495.467987 373.878143,495.829285 
	C370.873108,495.933044 369.754395,496.899261 369.812408,499.920837 
	C369.923767,505.720306 369.733551,511.525208 369.690826,517.328003 
	C369.547363,536.803528 369.457184,556.279541 369.246613,575.754272 
	C369.192261,580.777405 372.090790,581.739685 376.281769,581.811096 
	C380.849457,581.888794 381.195770,579.248657 381.170135,575.650635 
	C381.048065,558.496948 381.075836,541.341980 381.099701,524.187561 
	C381.102325,522.292236 381.420410,520.397400 381.592224,518.502319 
	C382.028473,518.405273 382.464722,518.308167 382.900970,518.211060 
	C388.915619,530.344543 394.930267,542.478027 401.259369,555.286621 
M909.342712,503.195862 
	C904.865967,498.834045 899.430359,496.282959 893.272095,496.083405 
	C882.795898,495.743927 872.302551,495.964020 861.818298,495.817627 
	C858.763123,495.774994 857.809021,497.024475 857.817749,499.983734 
	C857.893250,525.616516 857.948486,551.250244 857.781311,576.882263 
	C857.749695,581.728638 860.637207,581.213440 863.663208,581.139160 
	C866.704712,581.064453 870.184204,582.062683 869.948547,576.759888 
	C869.638367,569.783142 869.879150,562.781677 869.894409,555.790833 
	C869.915649,546.082520 869.930786,546.364441 879.743896,545.993774 
	C884.664612,545.807922 887.239563,547.468811 889.173462,551.957336 
	C892.856873,560.505798 897.053528,568.839844 901.258484,577.150879 
	C902.058838,578.732788 903.734253,580.659607 905.264648,580.922913 
	C908.597229,581.496155 912.096436,581.099976 916.739685,581.099976 
	C910.463074,568.495544 904.693604,556.909607 899.008484,545.493042 
	C902.364197,543.319946 904.934875,541.795776 907.356018,540.062866 
	C917.500916,532.802063 917.614502,512.684875 909.342712,503.195862 
M530.947693,541.381104 
	C530.609436,535.747437 530.579712,530.074768 529.874573,524.487427 
	C527.842590,508.386780 516.380554,496.906342 501.229004,496.074707 
	C492.434753,495.592010 483.595032,495.983551 474.777863,495.846741 
	C471.937836,495.802704 471.026917,496.981873 471.032867,499.707275 
	C471.088989,525.499512 471.096283,551.291931 471.022247,577.084106 
	C471.013672,580.069214 472.022034,581.239441 475.068054,581.182617 
	C483.884338,581.018188 492.724457,581.414795 501.517639,580.921692 
	C510.985840,580.390808 518.694702,576.110901 523.993530,568.014160 
	C529.096191,560.217163 530.347290,551.360962 530.947693,541.381104 
M616.208740,551.440735 
	C616.151855,553.772522 616.234924,556.117798 616.011963,558.433594 
	C615.340576,565.406860 611.025330,570.300293 604.428589,571.756531 
	C591.000793,574.720886 582.008667,567.729980 581.901245,553.983032 
	C581.767151,536.820740 581.852600,519.656677 581.843567,502.493408 
	C581.842529,500.531952 581.843384,498.570465 581.843384,496.208771 
	C577.572571,496.208771 573.916931,496.208771 570.365906,496.208771 
	C570.123535,497.336365 569.933716,497.818939 569.927979,498.303711 
	C569.707825,516.951416 569.154724,535.606018 569.511963,554.243103 
	C569.619446,559.847290 571.392212,565.839600 573.917480,570.897461 
	C581.113342,585.310303 605.599792,585.687500 616.368774,578.968384 
	C626.158875,572.860046 628.555298,563.104736 628.722961,552.626160 
	C628.997559,535.467102 628.608093,518.296631 628.949097,501.139893 
	C629.051331,495.994965 626.387207,495.281799 622.601746,495.326385 
	C618.983154,495.368988 615.976196,495.638855 616.087524,500.970184 
	C616.432007,517.459778 616.213928,533.961121 616.208740,551.440735 
M1147.780151,579.893494 
	C1156.188477,583.570068 1164.874878,583.770569 1173.719238,581.959595 
	C1184.068481,579.840637 1192.097656,571.617371 1192.987671,562.235474 
	C1194.336670,548.018616 1190.179932,540.466064 1177.806396,535.854065 
	C1170.492432,533.127930 1162.880493,531.211487 1155.488037,528.681335 
	C1150.931641,527.121826 1147.937622,524.232605 1147.770264,518.827087 
	C1147.596069,513.193665 1149.554321,508.953613 1154.629272,506.625183 
	C1162.604248,502.966156 1175.908691,503.394562 1179.794312,515.747620 
	C1180.083740,516.667664 1180.566895,517.526733 1181.017334,518.543640 
	C1183.637329,518.280701 1186.111816,518.116760 1188.559326,517.765015 
	C1191.491699,517.343567 1192.461060,515.778564 1191.454102,512.828796 
	C1189.163452,506.118988 1185.587891,500.552216 1178.923218,497.402222 
	C1169.136597,492.776733 1159.191895,492.922638 1149.394897,496.942108 
	C1139.059204,501.182587 1134.036377,511.448822 1135.830444,522.557922 
	C1137.543823,533.168091 1144.745117,537.914307 1154.059692,540.797668 
	C1160.563110,542.810791 1167.196777,544.569580 1173.430664,547.239502 
	C1179.710693,549.929077 1181.627197,553.929626 1180.997681,559.879456 
	C1180.364502,565.863586 1177.077148,570.398499 1170.920044,571.383911 
	C1165.967041,572.176758 1160.366211,572.396912 1155.762817,570.810791 
	C1152.007568,569.516968 1147.720459,565.707764 1146.494751,562.063538 
	C1144.556396,556.300598 1141.324341,556.610352 1137.003784,557.259094 
	C1133.309692,557.813904 1132.525391,559.650818 1133.519043,563.186523 
	C1135.640015,570.733276 1140.158325,576.104431 1147.780151,579.893494 
M685.180908,581.552185 
	C690.628662,581.996338 696.099548,582.997314 701.519531,582.772278 
	C713.972534,582.255310 724.378418,573.475769 725.899902,562.905762 
	C727.902283,548.994568 722.510071,540.177429 708.847900,535.154114 
	C706.509521,534.294312 704.062927,533.733704 701.693604,532.952332 
	C696.490173,531.236389 691.157288,529.804626 686.153992,527.622314 
	C681.466858,525.577942 679.578552,520.971497 680.479431,516.026733 
	C681.690247,509.381226 685.507080,505.785767 692.179993,505.004730 
	C702.196106,503.832336 708.877441,506.700409 711.676575,513.423523 
	C712.369446,515.087646 712.920410,516.810791 713.673462,518.883484 
	C717.496765,518.198242 721.114075,517.549988 724.699524,516.907410 
	C723.560303,509.097656 721.215027,504.483276 716.899719,500.996277 
	C707.249695,493.198608 691.611145,491.723236 680.663574,497.686584 
	C671.940247,502.438324 667.622742,509.836151 668.114136,519.795288 
	C668.583252,529.302917 673.680847,535.641785 682.359070,539.041016 
	C686.995056,540.856873 691.879517,542.027588 696.591858,543.662415 
	C700.500977,545.018494 704.619446,546.131348 708.121277,548.227295 
	C715.625183,552.718384 715.891907,563.757324 708.968140,569.066711 
	C698.984436,576.722595 682.010925,572.016968 678.326477,560.158936 
	C676.180603,553.252563 671.954712,557.583862 668.775818,557.843201 
	C664.586121,558.184998 665.949219,561.557007 666.632690,564.018433 
	C669.184998,573.209167 675.593018,578.513550 685.180908,581.552185 
M1055.952271,552.529114 
	C1055.956665,550.862732 1056.162964,549.167175 1055.926880,547.535583 
	C1055.279053,543.057861 1057.138672,541.808228 1061.507202,541.958801 
	C1070.326904,542.262817 1079.166992,541.919067 1087.995728,542.042236 
	C1091.310303,542.088440 1092.968872,541.125854 1092.821167,537.524170 
	C1092.683350,534.166748 1092.280396,531.773621 1087.896606,531.890991 
	C1078.905884,532.131714 1069.897461,531.743347 1060.908936,532.023193 
	C1056.830444,532.150146 1055.688599,530.680969 1055.878418,526.850708 
	C1056.133789,521.698303 1056.152832,516.511230 1055.862305,511.362213 
	C1055.636353,507.355316 1056.764038,505.745636 1061.087158,505.862183 
	C1071.409912,506.140564 1081.750610,505.752563 1092.073608,506.026367 
	C1096.344849,506.139679 1096.921631,504.260284 1096.972534,500.666412 
	C1097.025269,496.943756 1095.797241,495.761505 1092.075684,495.805664 
	C1077.915039,495.973785 1063.748535,495.997345 1049.589722,495.756622 
	C1045.297119,495.683685 1043.856812,496.838135 1043.894165,501.339081 
	C1044.100342,526.163757 1044.063477,550.991699 1043.893677,575.817017 
	C1043.865723,579.910583 1045.014893,581.300903 1049.218628,581.234436 
	C1063.544434,581.007812 1077.877319,581.045166 1092.204590,581.215576 
	C1096.123779,581.262207 1097.907715,580.321472 1097.955444,575.973083 
	C1098.007080,571.272949 1095.567139,570.979858 1091.970947,571.016296 
	C1081.308594,571.124451 1070.643188,570.945984 1059.980835,571.060120 
	C1056.953491,571.092468 1055.791016,570.045105 1055.898926,567.015686 
	C1056.058960,562.522705 1055.941528,558.019775 1055.952271,552.529114 
M300.500427,581.161499 
	C307.992401,581.149658 315.486786,581.021851 322.975372,581.175537 
	C326.660400,581.251160 328.875702,580.698120 328.906036,576.130066 
	C328.935913,571.639404 326.933929,570.710205 323.135345,571.006531 
	C320.818542,571.187317 318.456055,570.846375 316.149872,571.085266 
	C312.070709,571.507690 310.646362,570.010864 310.703369,565.793213 
	C310.914856,550.146240 310.774048,534.494568 310.777130,518.844666 
	C310.779633,506.271881 310.787079,506.271881 323.496399,505.907074 
	C323.662781,505.902283 323.831757,505.884399 323.995514,505.904694 
	C328.011078,506.402527 328.110596,503.845428 328.110840,500.907349 
	C328.111053,497.982697 328.058289,495.767059 324.023102,495.821259 
	C311.039520,495.995728 298.051086,495.955994 285.066528,495.815125 
	C281.647186,495.778015 281.060913,497.286346 280.861481,500.322479 
	C280.572723,504.718994 282.032928,506.477142 286.475647,505.939331 
	C288.772339,505.661316 291.150330,506.088562 293.457825,505.858398 
	C297.289948,505.476135 298.274048,507.184723 298.240906,510.784363 
	C298.096985,526.432861 298.186310,542.083496 298.192169,557.733337 
	C298.197083,570.781799 298.197906,570.781860 285.443085,571.052185 
	C285.110199,571.059265 284.775970,571.078308 284.444366,571.058411 
	C281.815674,570.900574 279.965149,571.888550 280.634705,574.747375 
	C281.206421,577.188477 279.270050,581.337219 284.517822,581.177856 
	C289.507660,581.026245 294.506042,581.156006 300.500427,581.161499 
M981.276550,581.154480 
	C987.075073,581.146484 992.873840,581.104309 998.672058,581.142029 
	C1002.796875,581.168945 1001.798401,578.123352 1001.893433,575.814209 
	C1001.988708,573.500000 1002.352661,570.931580 998.654297,571.034790 
	C995.161987,571.132263 991.660889,570.942932 988.170532,571.069336 
	C985.338928,571.171814 983.893677,570.353760 983.908997,567.169067 
	C984.001404,548.028931 984.010803,528.887695 983.909424,509.747620 
	C983.892395,506.533264 985.326477,505.754974 988.145996,505.864563 
	C991.469727,505.993744 994.810425,505.748993 998.128845,505.933594 
	C1001.450623,506.118347 1002.134949,504.327789 1001.853821,501.605835 
	C1001.606140,499.207581 1002.995056,495.874420 998.502197,495.881744 
	C984.854370,495.903992 971.205872,495.824982 957.559326,495.955963 
	C956.424622,495.966858 954.627197,497.023987 954.286804,497.996948 
	C952.465332,503.204407 954.460571,505.862946 959.897461,505.925751 
	C962.060791,505.950745 964.248413,506.120605 966.383606,505.870819 
	C970.673279,505.369019 972.179077,506.858917 972.100464,511.380646 
	C971.828735,527.021362 971.974426,542.669617 971.988586,558.315002 
	C971.999939,570.893738 972.017517,570.893799 959.221741,571.047363 
	C958.888916,571.051392 958.550842,571.088318 958.223877,571.044800 
	C954.362793,570.530762 953.934143,572.773560 953.971436,575.885254 
	C954.009033,579.024963 954.086609,581.359375 958.356140,581.204529 
	C965.669556,580.939331 973.000061,581.145813 981.276550,581.154480 
M795.836487,512.603882 
	C795.918579,505.982452 795.918579,505.977966 802.301880,505.955017 
	C807.297119,505.937073 812.297729,506.052979 817.283813,505.833435 
	C818.480957,505.780701 820.322327,504.896881 820.685974,503.944305 
	C822.674438,498.735413 820.545349,495.918671 814.947937,495.901428 
	C812.616821,495.894257 810.285645,495.892944 807.954529,495.892334 
	C792.496887,495.888458 777.039001,495.924164 761.581665,495.858063 
	C757.059631,495.838715 758.392273,499.104767 758.184265,501.510345 
	C757.962158,504.079803 758.272888,506.108154 761.757385,505.989197 
	C766.912964,505.813263 772.079346,505.959320 777.241150,505.962769 
	C783.718689,505.967133 783.859192,506.073578 783.864746,512.765808 
	C783.882263,533.888428 784.026367,555.012939 783.755981,576.132141 
	C783.693420,581.017212 785.526978,581.875183 789.827942,581.886292 
	C794.222290,581.897705 795.989807,580.841431 795.932617,576.021729 
	C795.685608,555.210876 795.826538,534.395508 795.836487,512.603882 
M1429.967407,649.385132 
	C1428.764160,646.750305 1427.561035,644.115479 1426.232178,641.205444 
	C1417.793091,655.122192 1417.793091,655.122192 1402.124390,665.424133 
	C1413.774902,669.560913 1422.113892,676.870972 1426.075195,688.906433 
	C1429.803589,676.787170 1438.488770,670.257141 1449.782959,664.964111 
	C1441.464111,661.021729 1434.379028,657.374634 1429.967407,649.385132 
z"/>
<path fill="#1E4C32" opacity="1.000000" stroke="none" 
	d="
M935.129700,380.630646 
	C935.129700,380.630646 935.138611,380.269989 934.983276,379.802307 
	C933.945923,377.818726 933.063843,376.302856 932.181763,374.786987 
	C932.181763,374.786987 932.152832,374.882935 932.146851,374.551941 
	C931.473877,373.088043 930.807007,371.955078 930.140137,370.822144 
	C930.140076,370.822144 930.108887,370.920166 930.120728,370.616302 
	C929.806213,369.811066 929.479797,369.309723 929.153442,368.808350 
	C929.153442,368.808350 929.101624,368.914185 929.086853,368.523132 
	C927.267822,365.796631 925.564697,361.540863 923.642700,361.439606 
	C911.779297,360.814697 899.866577,361.125824 887.394165,361.125824 
	C887.394165,388.962128 887.394165,416.037811 887.394165,443.113495 
	C887.394165,443.113495 887.147766,443.082642 886.648560,443.197754 
	C875.411316,443.312866 864.673279,443.312866 853.765198,443.312866 
	C853.765198,373.351044 853.765198,304.135803 853.765198,234.920532 
	C853.765198,234.920532 853.934631,234.912369 854.396667,234.786957 
	C864.327820,234.653717 873.798218,234.540787 883.265747,234.659302 
	C904.845703,234.929413 926.424377,235.313019 948.003540,235.650513 
	C957.905396,237.401215 967.451843,240.141663 975.950073,245.763046 
	C988.342529,253.960205 996.500305,265.217010 999.257935,279.847412 
	C1003.390564,301.772980 1002.451660,323.096863 985.975281,340.191254 
	C979.330078,347.085693 970.409790,351.787231 961.844604,357.978455 
	C975.977661,385.363190 990.732117,413.951935 1005.930542,443.400879 
	C996.031250,443.400879 986.886658,442.825684 977.852295,443.576172 
	C970.111633,444.219208 966.173645,441.642212 962.896545,434.465485 
	C956.067017,419.509033 947.991760,405.121429 940.136841,389.913818 
	C938.625610,387.146362 937.405823,384.965210 936.186096,382.784058 
	C936.186096,382.784027 936.145691,382.896210 936.155762,382.575989 
	C935.820435,381.714050 935.475037,381.172333 935.129700,380.630646 
M958.928894,322.398468 
	C966.907593,313.341858 967.391968,302.492493 966.179199,291.329926 
	C964.517761,276.037628 955.859985,265.510284 940.868896,264.364258 
	C923.383179,263.027496 905.716980,264.052094 887.848389,264.052094 
	C887.848389,286.510345 887.848389,309.405212 887.848389,331.997009 
	C904.810608,331.997009 921.573853,332.360718 938.308899,331.832642 
	C945.866211,331.594177 952.836182,328.400238 958.928894,322.398468 
z"/>
<path fill="#1F4C33" opacity="1.000000" stroke="none" 
	d="
M1252.982910,314.001862 
	C1252.916748,315.392761 1252.850708,316.783630 1252.869873,318.885315 
	C1253.303955,319.723419 1253.652710,319.850769 1254.001465,319.978119 
	C1280.022217,320.063782 1306.042969,320.149445 1332.968506,320.028748 
	C1334.035034,318.024414 1334.335327,316.226562 1334.337646,314.428314 
	C1334.368042,290.484467 1334.338989,266.540588 1334.379395,242.596802 
	C1334.384155,239.789398 1334.713745,236.982559 1334.892822,234.175446 
	C1345.838013,234.175446 1356.783203,234.175446 1367.981567,234.175446 
	C1367.981567,304.276703 1367.981567,373.505035 1367.981567,443.030518 
	C1356.799194,443.030518 1345.752930,443.030518 1334.278198,443.030518 
	C1334.278198,411.636871 1334.278198,380.566833 1334.278198,349.260803 
	C1306.957397,349.260803 1280.065552,349.260803 1252.752686,349.260803 
	C1252.752686,380.595551 1252.752686,411.673615 1252.752686,443.049713 
	C1241.409790,443.049713 1230.483276,443.049713 1219.200073,443.049713 
	C1219.200073,373.831879 1219.200073,304.641876 1219.200073,234.646118 
	C1226.469604,234.646118 1233.874268,234.568466 1241.276367,234.678543 
	C1245.033691,234.734421 1248.785767,235.128738 1252.651611,236.142487 
	C1252.836304,262.610596 1252.909546,288.306213 1252.982910,314.001862 
z"/>
<path fill="#1E4C32" opacity="1.000000" stroke="none" 
	d="
M455.310333,383.990692 
	C454.391937,389.563660 453.899200,395.247650 452.479492,400.689819 
	C447.096313,421.325287 433.960876,435.142517 413.806610,441.570862 
	C392.472687,448.375427 370.794800,448.289490 349.472809,441.256989 
	C325.091492,433.215454 312.264374,415.528473 309.083710,390.518402 
	C308.267792,384.102875 308.105621,377.571075 308.093445,371.091827 
	C308.011749,327.631287 308.051666,284.170502 308.052155,240.709808 
	C308.052185,238.889542 308.052155,237.069260 308.052155,234.570938 
	C318.738953,234.570938 329.173096,234.518326 339.603668,234.685944 
	C340.320404,234.697449 341.010681,236.354813 341.729919,238.076996 
	C341.712311,283.115570 341.669861,327.323853 341.663177,371.532135 
	C341.662750,374.347534 341.939850,377.162994 342.087830,379.978424 
	C342.016296,402.052429 354.052643,415.555237 375.857452,417.220459 
	C381.759064,417.671143 387.910065,417.470917 393.696594,416.316376 
	C410.207367,413.022034 419.065552,403.071198 420.950134,386.320740 
	C421.636475,380.220856 421.893005,374.044128 421.905945,367.901520 
	C421.995789,325.297913 421.969727,282.694000 421.980804,240.090210 
	C421.981232,238.441422 421.980865,236.792648 421.980865,235.365540 
	C433.332458,235.365540 444.369019,235.365540 455.493958,236.118225 
	C455.491699,285.910858 455.401001,334.950775 455.310333,383.990692 
z"/>
<path fill="#1F4C33" opacity="1.000000" stroke="none" 
	d="
M1170.544067,255.485291 
	C1179.343750,267.638184 1184.233643,280.663086 1185.328247,294.889008 
	C1174.167603,295.943085 1163.000000,296.997833 1151.823975,298.053375 
	C1150.796021,293.709320 1150.070312,289.792267 1148.936157,285.997314 
	C1144.312500,270.526825 1132.044556,260.929047 1115.947510,260.018250 
	C1087.682739,258.418945 1072.431519,270.737396 1068.303833,300.099060 
	C1064.483765,327.272156 1064.774902,354.631470 1069.098999,381.753296 
	C1071.581299,397.322510 1078.492432,410.261627 1095.049561,415.321777 
	C1105.362793,418.473663 1115.777344,418.639801 1126.046875,415.460541 
	C1141.414307,410.702972 1148.223511,398.921570 1150.922607,384.012207 
	C1151.331543,381.752960 1151.734619,379.492615 1152.223877,376.767548 
	C1163.462646,377.998810 1174.489258,379.206787 1186.074829,380.476013 
	C1184.030396,399.342682 1178.161499,415.997559 1163.950317,428.882660 
	C1152.784302,439.006958 1139.282593,443.788391 1124.580811,445.459381 
	C1105.713013,447.603912 1087.242310,446.138306 1070.064697,437.325470 
	C1051.652466,427.879303 1040.819824,412.162231 1036.623535,392.372009 
	C1029.037598,356.596863 1028.438232,320.522308 1037.004517,284.874298 
	C1044.640137,253.099594 1067.349854,234.812103 1099.855469,231.906464 
	C1118.965820,230.198196 1137.616089,231.390854 1154.354614,241.808151 
	C1160.193970,245.442337 1165.025513,250.695847 1170.544067,255.485291 
z"/>
<path fill="#1E4B32" opacity="1.000000" stroke="none" 
	d="
M577.944214,340.015869 
	C577.872986,340.457153 577.801758,340.898468 577.741089,342.123047 
	C577.815735,348.942841 577.879822,354.979370 577.943909,361.015900 
	C577.868103,363.384094 577.792297,365.752289 577.731018,369.013062 
	C577.822632,393.936310 577.899658,417.967010 577.976685,441.997711 
	C577.327209,442.440033 576.680542,443.262939 576.027771,443.267822 
	C565.391479,443.347992 554.754333,443.324646 543.621399,443.324646 
	C543.621399,383.177094 543.621399,323.434875 543.621399,263.223572 
	C523.214905,263.223572 503.303223,263.223572 483.089691,263.223572 
	C483.089691,253.528137 483.089691,244.301987 483.089691,234.828247 
	C534.710327,234.828247 586.152100,234.828247 637.926270,234.828247 
	C637.926270,244.147842 637.926270,253.363953 637.926270,263.273926 
	C618.068665,263.273926 598.295532,263.273926 578.166260,263.958496 
	C577.862488,265.100067 577.914734,265.557129 577.967041,266.014160 
	C577.897278,266.456451 577.827576,266.898773 577.767456,268.126160 
	C577.829163,281.614044 577.881226,294.316864 577.933350,307.019684 
	C577.858765,308.730194 577.784241,310.440674 577.726074,313.027863 
	C577.809692,322.608307 577.876953,331.312103 577.944214,340.015869 
z"/>
<path fill="#1F4C33" opacity="1.000000" stroke="none" 
	d="
M151.881516,402.916016 
	C148.291626,415.456329 144.875961,427.625671 141.191833,439.713165 
	C140.751251,441.158752 138.877762,443.172852 137.622375,443.206573 
	C127.148308,443.487671 116.663452,443.366180 105.316216,443.366180 
	C105.845505,441.451019 106.227455,439.964203 106.666786,438.494507 
	C126.523659,372.066528 146.406082,305.646149 166.186493,239.195435 
	C167.179321,235.860046 168.439651,234.235550 172.278198,234.476929 
	C178.373718,234.860245 184.510986,234.579208 191.043594,234.579208 
	C189.810959,241.813538 188.616104,248.485367 187.567368,255.180115 
	C187.234695,257.303772 186.862808,259.567230 187.242111,261.632019 
	C189.206711,272.326965 186.585022,282.331818 183.528412,292.451233 
	C177.183411,313.457520 171.249664,334.588074 165.160828,355.671539 
	C164.704712,357.250916 164.360001,358.862427 163.784775,361.178772 
	C172.160187,361.178772 180.184387,361.178772 188.513535,361.178772 
	C188.513535,370.729889 188.513535,379.615082 188.513535,389.082397 
	C179.208893,389.082397 169.938019,389.290588 160.684265,388.983276 
	C156.808701,388.854553 154.901932,390.006561 154.258255,393.841614 
	C153.765182,396.779510 152.754974,399.630646 151.881516,402.916016 
z"/>
<path fill="#1F4C33" opacity="1.000000" stroke="none" 
	d="
M666.992676,374.897827 
	C680.580750,329.412720 694.123962,284.332550 707.498535,239.202362 
	C708.508057,235.795853 709.703918,234.227829 713.514954,234.453827 
	C719.482300,234.807663 725.486084,234.547653 732.236145,234.547653 
	C731.639160,237.975845 730.900452,240.967834 730.632141,244.001434 
	C729.932922,251.908752 729.525940,259.841858 728.835388,267.750092 
	C728.334778,273.483551 728.304932,279.397430 726.791321,284.879120 
	C720.151245,308.926514 713.045105,332.845123 706.118530,356.813446 
	C705.754028,358.074646 705.486267,359.363739 705.038391,361.191315 
	C713.246155,361.191315 721.140381,361.191315 729.348511,361.191315 
	C729.348511,370.610687 729.348511,379.524506 729.348511,389.115417 
	C720.543701,389.115417 711.779602,389.390717 703.044922,389.003571 
	C698.422913,388.798676 696.451843,390.157104 695.244324,394.787201 
	C691.300293,409.909485 686.853699,424.903290 682.378906,439.880371 
	C681.957031,441.292328 680.002991,443.213989 678.717102,443.247620 
	C668.246948,443.521301 657.766602,443.401489 646.353760,443.401489 
	C653.319519,420.316376 660.112610,397.803314 666.992676,374.897827 
z"/>
<path fill="#1F4D33" opacity="1.000000" stroke="none" 
	d="
M226.784973,250.194519 
	C245.960144,314.606842 265.028687,378.632599 284.298889,443.335388 
	C272.719971,443.335388 261.633545,443.457306 250.558838,443.153351 
	C249.407257,443.121765 247.766296,440.729065 247.297409,439.151093 
	C242.798721,424.011383 238.505829,408.810577 234.145386,393.629700 
	C233.735886,392.204102 233.267761,390.795319 232.758881,389.160217 
	C222.834946,389.160217 213.035629,389.160217 202.854416,389.160217 
	C202.854416,379.856720 202.854416,370.827850 202.854416,361.292908 
	C210.248032,361.292908 217.495682,361.292908 225.203339,361.292908 
	C221.244385,347.116760 217.442795,333.529419 213.656113,319.937927 
	C209.505936,305.041931 205.330551,290.152710 201.277008,275.230377 
	C200.778519,273.395233 200.463821,271.249603 200.911896,269.460205 
	C203.778015,258.014587 206.881302,246.628387 209.981812,234.938995 
	C213.879562,234.938995 217.647415,234.938995 221.901474,234.938995 
	C223.441315,239.732071 225.059830,244.770004 226.784973,250.194519 
z"/>
<path fill="#1F4D32" opacity="1.000000" stroke="none" 
	d="
M812.442322,398.486176 
	C816.933838,413.454437 821.282104,428.044006 825.847412,443.361786 
	C813.954346,443.361786 802.844727,443.446014 791.742126,443.206482 
	C790.825195,443.186707 789.526489,441.098389 789.129822,439.756897 
	C784.604675,424.451141 780.093201,409.138519 775.889526,393.742645 
	C774.862793,389.982269 773.202026,388.836243 769.373779,388.993011 
	C761.424072,389.318573 753.451721,389.091309 745.170288,389.091309 
	C745.170288,379.861511 745.170288,370.940521 745.170288,361.491913 
	C752.162903,361.491913 759.234558,361.491913 766.909851,361.491913 
	C764.030151,351.160950 761.330750,341.468597 758.626709,331.777496 
	C753.352722,312.876526 748.051025,293.983185 742.843994,275.063782 
	C742.378113,273.370880 742.021729,271.376984 742.458984,269.749786 
	C745.563354,258.196625 748.887878,246.702560 752.158997,235.130341 
	C752.688049,234.973969 753.135132,234.740387 753.590942,234.722000 
	C763.306946,234.330338 763.330383,234.328079 766.139587,243.719345 
	C781.532898,295.180023 796.913879,346.644379 812.442322,398.486176 
z"/>
<path fill="#CDAD48" opacity="1.000000" stroke="none" 
	d="
M727.825439,141.636627 
	C745.232910,136.380936 764.838501,147.066452 768.467285,165.261627 
	C770.926392,177.591888 767.764587,188.558243 758.016357,196.771408 
	C747.328979,205.775833 735.077820,207.132233 722.584229,201.133194 
	C710.956848,195.550064 704.897888,185.913254 704.896484,172.779053 
	C704.894836,157.610992 712.792542,146.731155 727.825439,141.636627 
z"/>
<path fill="#61B8BF" opacity="1.000000" stroke="none" 
	d="
M401.102142,554.949097 
	C394.930267,542.478027 388.915619,530.344543 382.900970,518.211060 
	C382.464722,518.308167 382.028473,518.405273 381.592224,518.502319 
	C381.420410,520.397400 381.102325,522.292236 381.099701,524.187561 
	C381.075836,541.341980 381.048065,558.496948 381.170135,575.650635 
	C381.195770,579.248657 380.849457,581.888794 376.281769,581.811096 
	C372.090790,581.739685 369.192261,580.777405 369.246613,575.754272 
	C369.457184,556.279541 369.547363,536.803528 369.690826,517.328003 
	C369.733551,511.525208 369.923767,505.720306 369.812408,499.920837 
	C369.754395,496.899261 370.873108,495.933044 373.878143,495.829285 
	C384.342865,495.467987 384.223297,495.416901 388.860535,504.950989 
	C397.011505,521.709290 405.309448,538.396179 413.581177,555.095459 
	C414.281464,556.509216 415.247162,557.791626 416.961243,558.868713 
	C416.961243,538.164795 416.961243,517.460876 416.961243,496.505402 
	C418.943054,496.067963 420.504272,495.548950 422.099670,495.402832 
	C427.609436,494.898041 428.821320,496.033020 428.826538,501.602325 
	C428.849579,526.251587 428.787537,550.901245 428.928589,575.549805 
	C428.950348,579.345764 428.281403,580.944702 423.894257,581.349060 
	C412.938477,582.358887 414.519958,581.658386 410.373688,573.627441 
	C407.242218,567.562012 404.290894,561.403625 401.102142,554.949097 
z"/>
<path fill="#61B7BE" opacity="1.000000" stroke="none" 
	d="
M909.591919,503.457458 
	C917.614502,512.684875 917.500916,532.802063 907.356018,540.062866 
	C904.934875,541.795776 902.364197,543.319946 899.008484,545.493042 
	C904.693604,556.909607 910.463074,568.495544 916.739685,581.099976 
	C912.096436,581.099976 908.597229,581.496155 905.264648,580.922913 
	C903.734253,580.659607 902.058838,578.732788 901.258484,577.150879 
	C897.053528,568.839844 892.856873,560.505798 889.173462,551.957336 
	C887.239563,547.468811 884.664612,545.807922 879.743896,545.993774 
	C869.930786,546.364441 869.915649,546.082520 869.894409,555.790833 
	C869.879150,562.781677 869.638367,569.783142 869.948547,576.759888 
	C870.184204,582.062683 866.704712,581.064453 863.663208,581.139160 
	C860.637207,581.213440 857.749695,581.728638 857.781311,576.882263 
	C857.948486,551.250244 857.893250,525.616516 857.817749,499.983734 
	C857.809021,497.024475 858.763123,495.774994 861.818298,495.817627 
	C872.302551,495.964020 882.795898,495.743927 893.272095,496.083405 
	C899.430359,496.282959 904.865967,498.834045 909.591919,503.457458 
M892.623108,535.649414 
	C901.304077,532.713684 904.538696,526.829712 902.947754,516.868042 
	C901.871704,510.130585 896.564697,506.109955 888.377930,505.959381 
	C883.553101,505.870636 878.721130,506.058685 873.900635,505.888153 
	C870.856750,505.780457 869.788086,506.962555 869.844666,509.964966 
	C869.982605,517.285156 869.972229,524.611023 869.852783,531.931763 
	C869.805481,534.827881 870.678223,536.227905 873.813232,536.112183 
	C879.796570,535.891357 885.788635,535.907227 892.623108,535.649414 
z"/>
<path fill="#5FB7BE" opacity="1.000000" stroke="none" 
	d="
M530.942261,541.857727 
	C530.347290,551.360962 529.096191,560.217163 523.993530,568.014160 
	C518.694702,576.110901 510.985840,580.390808 501.517639,580.921692 
	C492.724457,581.414795 483.884338,581.018188 475.068054,581.182617 
	C472.022034,581.239441 471.013672,580.069214 471.022247,577.084106 
	C471.096283,551.291931 471.088989,525.499512 471.032867,499.707275 
	C471.026917,496.981873 471.937836,495.802704 474.777863,495.846741 
	C483.595032,495.983551 492.434753,495.592010 501.229004,496.074707 
	C516.380554,496.906342 527.842590,508.386780 529.874573,524.487427 
	C530.579712,530.074768 530.609436,535.747437 530.942261,541.857727 
M483.085388,564.376770 
	C483.119843,571.014893 483.119843,571.017639 489.484589,571.031982 
	C491.650696,571.036865 493.817444,571.054138 495.982941,571.014954 
	C507.483093,570.806885 514.329834,565.435242 516.968018,554.161926 
	C519.470337,543.469055 519.407471,532.686646 516.833496,522.017883 
	C514.336426,511.667847 507.463745,506.326630 496.720245,505.981049 
	C494.056824,505.895386 491.362671,506.185760 488.728882,505.890686 
	C484.396179,505.405151 482.931854,506.938873 482.991791,511.417755 
	C483.223663,528.743835 483.083710,546.074829 483.085388,564.376770 
z"/>
<path fill="#62B8BE" opacity="1.000000" stroke="none" 
	d="
M616.211548,550.949341 
	C616.213928,533.961121 616.432007,517.459778 616.087524,500.970184 
	C615.976196,495.638855 618.983154,495.368988 622.601746,495.326385 
	C626.387207,495.281799 629.051331,495.994965 628.949097,501.139893 
	C628.608093,518.296631 628.997559,535.467102 628.722961,552.626160 
	C628.555298,563.104736 626.158875,572.860046 616.368774,578.968384 
	C605.599792,585.687500 581.113342,585.310303 573.917480,570.897461 
	C571.392212,565.839600 569.619446,559.847290 569.511963,554.243103 
	C569.154724,535.606018 569.707825,516.951416 569.927979,498.303711 
	C569.933716,497.818939 570.123535,497.336365 570.365906,496.208771 
	C573.916931,496.208771 577.572571,496.208771 581.843384,496.208771 
	C581.843384,498.570465 581.842529,500.531952 581.843567,502.493408 
	C581.852600,519.656677 581.767151,536.820740 581.901245,553.983032 
	C582.008667,567.729980 591.000793,574.720886 604.428589,571.756531 
	C611.025330,570.300293 615.340576,565.406860 616.011963,558.433594 
	C616.234924,556.117798 616.151855,553.772522 616.211548,550.949341 
z"/>
<path fill="#63B7BF" opacity="1.000000" stroke="none" 
	d="
M1147.440186,579.726074 
	C1140.158325,576.104431 1135.640015,570.733276 1133.519043,563.186523 
	C1132.525391,559.650818 1133.309692,557.813904 1137.003784,557.259094 
	C1141.324341,556.610352 1144.556396,556.300598 1146.494751,562.063538 
	C1147.720459,565.707764 1152.007568,569.516968 1155.762817,570.810791 
	C1160.366211,572.396912 1165.967041,572.176758 1170.920044,571.383911 
	C1177.077148,570.398499 1180.364502,565.863586 1180.997681,559.879456 
	C1181.627197,553.929626 1179.710693,549.929077 1173.430664,547.239502 
	C1167.196777,544.569580 1160.563110,542.810791 1154.059692,540.797668 
	C1144.745117,537.914307 1137.543823,533.168091 1135.830444,522.557922 
	C1134.036377,511.448822 1139.059204,501.182587 1149.394897,496.942108 
	C1159.191895,492.922638 1169.136597,492.776733 1178.923218,497.402222 
	C1185.587891,500.552216 1189.163452,506.118988 1191.454102,512.828796 
	C1192.461060,515.778564 1191.491699,517.343567 1188.559326,517.765015 
	C1186.111816,518.116760 1183.637329,518.280701 1181.017334,518.543640 
	C1180.566895,517.526733 1180.083740,516.667664 1179.794312,515.747620 
	C1175.908691,503.394562 1162.604248,502.966156 1154.629272,506.625183 
	C1149.554321,508.953613 1147.596069,513.193665 1147.770264,518.827087 
	C1147.937622,524.232605 1150.931641,527.121826 1155.488037,528.681335 
	C1162.880493,531.211487 1170.492432,533.127930 1177.806396,535.854065 
	C1190.179932,540.466064 1194.336670,548.018616 1192.987671,562.235474 
	C1192.097656,571.617371 1184.068481,579.840637 1173.719238,581.959595 
	C1164.874878,583.770569 1156.188477,583.570068 1147.440186,579.726074 
z"/>
<path fill="#62B7BF" opacity="1.000000" stroke="none" 
	d="
M684.800659,581.418152 
	C675.593018,578.513550 669.184998,573.209167 666.632690,564.018433 
	C665.949219,561.557007 664.586121,558.184998 668.775818,557.843201 
	C671.954712,557.583862 676.180603,553.252563 678.326477,560.158936 
	C682.010925,572.016968 698.984436,576.722595 708.968140,569.066711 
	C715.891907,563.757324 715.625183,552.718384 708.121277,548.227295 
	C704.619446,546.131348 700.500977,545.018494 696.591858,543.662415 
	C691.879517,542.027588 686.995056,540.856873 682.359070,539.041016 
	C673.680847,535.641785 668.583252,529.302917 668.114136,519.795288 
	C667.622742,509.836151 671.940247,502.438324 680.663574,497.686584 
	C691.611145,491.723236 707.249695,493.198608 716.899719,500.996277 
	C721.215027,504.483276 723.560303,509.097656 724.699524,516.907410 
	C721.114075,517.549988 717.496765,518.198242 713.673462,518.883484 
	C712.920410,516.810791 712.369446,515.087646 711.676575,513.423523 
	C708.877441,506.700409 702.196106,503.832336 692.179993,505.004730 
	C685.507080,505.785767 681.690247,509.381226 680.479431,516.026733 
	C679.578552,520.971497 681.466858,525.577942 686.153992,527.622314 
	C691.157288,529.804626 696.490173,531.236389 701.693604,532.952332 
	C704.062927,533.733704 706.509521,534.294312 708.847900,535.154114 
	C722.510071,540.177429 727.902283,548.994568 725.899902,562.905762 
	C724.378418,573.475769 713.972534,582.255310 701.519531,582.772278 
	C696.099548,582.997314 690.628662,581.996338 684.800659,581.418152 
z"/>
<path fill="#61B7BE" opacity="1.000000" stroke="none" 
	d="
M1055.947266,553.025146 
	C1055.941528,558.019775 1056.058960,562.522705 1055.898926,567.015686 
	C1055.791016,570.045105 1056.953491,571.092468 1059.980835,571.060120 
	C1070.643188,570.945984 1081.308594,571.124451 1091.970947,571.016296 
	C1095.567139,570.979858 1098.007080,571.272949 1097.955444,575.973083 
	C1097.907715,580.321472 1096.123779,581.262207 1092.204590,581.215576 
	C1077.877319,581.045166 1063.544434,581.007812 1049.218628,581.234436 
	C1045.014893,581.300903 1043.865723,579.910583 1043.893677,575.817017 
	C1044.063477,550.991699 1044.100342,526.163757 1043.894165,501.339081 
	C1043.856812,496.838135 1045.297119,495.683685 1049.589722,495.756622 
	C1063.748535,495.997345 1077.915039,495.973785 1092.075684,495.805664 
	C1095.797241,495.761505 1097.025269,496.943756 1096.972534,500.666412 
	C1096.921631,504.260284 1096.344849,506.139679 1092.073608,506.026367 
	C1081.750610,505.752563 1071.409912,506.140564 1061.087158,505.862183 
	C1056.764038,505.745636 1055.636353,507.355316 1055.862305,511.362213 
	C1056.152832,516.511230 1056.133789,521.698303 1055.878418,526.850708 
	C1055.688599,530.680969 1056.830444,532.150146 1060.908936,532.023193 
	C1069.897461,531.743347 1078.905884,532.131714 1087.896606,531.890991 
	C1092.280396,531.773621 1092.683350,534.166748 1092.821167,537.524170 
	C1092.968872,541.125854 1091.310303,542.088440 1087.995728,542.042236 
	C1079.166992,541.919067 1070.326904,542.262817 1061.507202,541.958801 
	C1057.138672,541.808228 1055.279053,543.057861 1055.926880,547.535583 
	C1056.162964,549.167175 1055.956665,550.862732 1055.947266,553.025146 
z"/>
<path fill="#61B8BF" opacity="1.000000" stroke="none" 
	d="
M300.000549,581.161743 
	C294.506042,581.156006 289.507660,581.026245 284.517822,581.177856 
	C279.270050,581.337219 281.206421,577.188477 280.634705,574.747375 
	C279.965149,571.888550 281.815674,570.900574 284.444366,571.058411 
	C284.775970,571.078308 285.110199,571.059265 285.443085,571.052185 
	C298.197906,570.781860 298.197083,570.781799 298.192169,557.733337 
	C298.186310,542.083496 298.096985,526.432861 298.240906,510.784363 
	C298.274048,507.184723 297.289948,505.476135 293.457825,505.858398 
	C291.150330,506.088562 288.772339,505.661316 286.475647,505.939331 
	C282.032928,506.477142 280.572723,504.718994 280.861481,500.322479 
	C281.060913,497.286346 281.647186,495.778015 285.066528,495.815125 
	C298.051086,495.955994 311.039520,495.995728 324.023102,495.821259 
	C328.058289,495.767059 328.111053,497.982697 328.110840,500.907349 
	C328.110596,503.845428 328.011078,506.402527 323.995514,505.904694 
	C323.831757,505.884399 323.662781,505.902283 323.496399,505.907074 
	C310.787079,506.271881 310.779633,506.271881 310.777130,518.844666 
	C310.774048,534.494568 310.914856,550.146240 310.703369,565.793213 
	C310.646362,570.010864 312.070709,571.507690 316.149872,571.085266 
	C318.456055,570.846375 320.818542,571.187317 323.135345,571.006531 
	C326.933929,570.710205 328.935913,571.639404 328.906036,576.130066 
	C328.875702,580.698120 326.660400,581.251160 322.975372,581.175537 
	C315.486786,581.021851 307.992401,581.149658 300.000549,581.161743 
z"/>
<path fill="#63B7BF" opacity="1.000000" stroke="none" 
	d="
M980.799988,581.154297 
	C973.000061,581.145813 965.669556,580.939331 958.356140,581.204529 
	C954.086609,581.359375 954.009033,579.024963 953.971436,575.885254 
	C953.934143,572.773560 954.362793,570.530762 958.223877,571.044800 
	C958.550842,571.088318 958.888916,571.051392 959.221741,571.047363 
	C972.017517,570.893799 971.999939,570.893738 971.988586,558.315002 
	C971.974426,542.669617 971.828735,527.021362 972.100464,511.380646 
	C972.179077,506.858917 970.673279,505.369019 966.383606,505.870819 
	C964.248413,506.120605 962.060791,505.950745 959.897461,505.925751 
	C954.460571,505.862946 952.465332,503.204407 954.286804,497.996948 
	C954.627197,497.023987 956.424622,495.966858 957.559326,495.955963 
	C971.205872,495.824982 984.854370,495.903992 998.502197,495.881744 
	C1002.995056,495.874420 1001.606140,499.207581 1001.853821,501.605835 
	C1002.134949,504.327789 1001.450623,506.118347 998.128845,505.933594 
	C994.810425,505.748993 991.469727,505.993744 988.145996,505.864563 
	C985.326477,505.754974 983.892395,506.533264 983.909424,509.747620 
	C984.010803,528.887695 984.001404,548.028931 983.908997,567.169067 
	C983.893677,570.353760 985.338928,571.171814 988.170532,571.069336 
	C991.660889,570.942932 995.161987,571.132263 998.654297,571.034790 
	C1002.352661,570.931580 1001.988708,573.500000 1001.893433,575.814209 
	C1001.798401,578.123352 1002.796875,581.168945 998.672058,581.142029 
	C992.873840,581.104309 987.075073,581.146484 980.799988,581.154297 
z"/>
<path fill="#61B8BF" opacity="1.000000" stroke="none" 
	d="
M795.831421,513.092773 
	C795.826538,534.395508 795.685608,555.210876 795.932617,576.021729 
	C795.989807,580.841431 794.222290,581.897705 789.827942,581.886292 
	C785.526978,581.875183 783.693420,581.017212 783.755981,576.132141 
	C784.026367,555.012939 783.882263,533.888428 783.864746,512.765808 
	C783.859192,506.073578 783.718689,505.967133 777.241150,505.962769 
	C772.079346,505.959320 766.912964,505.813263 761.757385,505.989197 
	C758.272888,506.108154 757.962158,504.079803 758.184265,501.510345 
	C758.392273,499.104767 757.059631,495.838715 761.581665,495.858063 
	C777.039001,495.924164 792.496887,495.888458 807.954529,495.892334 
	C810.285645,495.892944 812.616821,495.894257 814.947937,495.901428 
	C820.545349,495.918671 822.674438,498.735413 820.685974,503.944305 
	C820.322327,504.896881 818.480957,505.780701 817.283813,505.833435 
	C812.297729,506.052979 807.297119,505.937073 802.301880,505.955017 
	C795.918579,505.977966 795.918579,505.982452 795.831421,513.092773 
z"/>
<path fill="#ECECEB" opacity="1.000000" stroke="none" 
	d="
M1430.206055,649.662415 
	C1434.379028,657.374634 1441.464111,661.021729 1449.782959,664.964111 
	C1438.488770,670.257141 1429.803589,676.787170 1426.075195,688.906433 
	C1422.113892,676.870972 1413.774902,669.560913 1402.124390,665.424133 
	C1417.793091,655.122192 1417.793091,655.122192 1426.232178,641.205444 
	C1427.561035,644.115479 1428.764160,646.750305 1430.206055,649.662415 
z"/>
<path fill="#D4DBDA" opacity="1.000000" stroke="none" 
	d="
M853.411926,235.084488 
	C853.765198,304.135803 853.765198,373.351044 853.765198,443.312866 
	C864.673279,443.312866 875.411316,443.312866 886.624512,443.319580 
	C885.672913,443.884247 884.254272,444.899414 882.817993,444.925079 
	C874.321350,445.077118 865.820190,445.046143 857.321289,444.980652 
	C852.582642,444.944153 851.133118,442.609222 851.369934,438.064148 
	C851.833740,429.165192 851.719299,420.235931 851.837646,411.319153 
	C851.898621,406.722229 851.984131,402.125183 851.991272,397.528076 
	C852.011902,384.195740 851.998413,370.863312 851.998596,357.530945 
	C851.998779,348.937286 851.999817,340.343597 851.999939,331.749939 
	C852.000183,318.489105 852.128296,305.226624 851.962646,291.967865 
	C851.807800,279.574646 851.060547,267.183807 851.126160,254.794876 
	C851.160706,248.276169 852.376343,241.763718 853.411926,235.084488 
z"/>
<path fill="#D4DBDA" opacity="1.000000" stroke="none" 
	d="
M887.727539,442.921570 
	C887.394165,416.037811 887.394165,388.962128 887.394165,361.125824 
	C899.866577,361.125824 911.779297,360.814697 923.642700,361.439606 
	C925.564697,361.540863 927.267822,365.796631 929.138123,368.494080 
	C928.049133,368.400146 926.393738,368.279816 925.824402,367.431000 
	C923.139343,363.428131 919.419922,362.734314 914.961853,362.931702 
	C908.808716,363.204163 902.634216,362.962646 896.469360,363.011658 
	C890.837402,363.056427 889.021362,364.855713 889.013428,370.524628 
	C888.982300,392.686035 889.023071,414.847565 888.959167,437.008850 
	C888.953674,438.916626 888.373962,440.822754 887.727539,442.921570 
z"/>
<path fill="#D4DBDA" opacity="1.000000" stroke="none" 
	d="
M947.862854,235.319000 
	C926.424377,235.313019 904.845703,234.929413 883.265747,234.659302 
	C873.798218,234.540787 864.327820,234.653717 854.385742,234.702850 
	C855.478333,234.162674 857.041809,233.080292 858.609558,233.074219 
	C885.310364,232.970551 912.012024,232.937500 938.712402,233.087982 
	C941.719177,233.104935 944.719055,234.325211 947.862854,235.319000 
z"/>
<path fill="#DBEBE1" opacity="1.000000" stroke="none" 
	d="
M455.659058,383.833038 
	C455.401001,334.950775 455.491699,285.910858 455.703491,236.412384 
	C456.216736,237.668549 456.949097,239.382797 456.951416,241.098038 
	C457.013611,287.066193 457.010529,333.034485 456.958893,379.002686 
	C456.957123,380.560638 456.338745,382.117828 455.659058,383.833038 
z"/>
<path fill="#DBEBE1" opacity="1.000000" stroke="none" 
	d="
M342.335999,379.649475 
	C341.939850,377.162994 341.662750,374.347534 341.663177,371.532135 
	C341.669861,327.323853 341.712311,283.115570 341.843750,238.446289 
	C342.293793,239.383347 342.953339,240.781021 342.954987,242.179474 
	C343.007874,287.081451 342.999329,331.983490 342.978851,376.885529 
	C342.978485,377.697235 342.721466,378.508850 342.335999,379.649475 
z"/>
<path fill="#DBEBE1" opacity="1.000000" stroke="none" 
	d="
M1334.473877,234.334824 
	C1334.713745,236.982559 1334.384155,239.789398 1334.379395,242.596802 
	C1334.338989,266.540588 1334.368042,290.484467 1334.337646,314.428314 
	C1334.335327,316.226562 1334.035034,318.024414 1333.428345,319.936890 
	C1332.989014,293.419037 1332.973145,266.786682 1333.045288,240.154541 
	C1333.050415,238.266861 1333.703369,236.380951 1334.473877,234.334824 
z"/>
<path fill="#DBEBE1" opacity="1.000000" stroke="none" 
	d="
M1253.252075,313.684875 
	C1252.909546,288.306213 1252.836304,262.610596 1252.856079,236.453979 
	C1253.297241,237.225250 1253.945923,238.456726 1253.948975,239.689804 
	C1254.007812,263.443634 1253.995483,287.197632 1253.969849,310.951569 
	C1253.968994,311.757202 1253.677368,312.562469 1253.252075,313.684875 
z"/>
<path fill="#DBEBE1" opacity="1.000000" stroke="none" 
	d="
M578.248596,441.683167 
	C577.899658,417.967010 577.822632,393.936310 577.843201,369.444397 
	C578.293030,370.213928 578.949036,371.443848 578.952454,372.675507 
	C579.013428,394.768127 579.000427,416.861023 578.974426,438.953796 
	C578.973450,439.758911 578.678467,440.563690 578.248596,441.683167 
z"/>
<path fill="#DBEBE1" opacity="1.000000" stroke="none" 
	d="
M578.212708,306.707947 
	C577.881226,294.316864 577.829163,281.614044 577.871521,268.449768 
	C578.274536,268.558929 578.855469,269.131378 578.851746,269.699921 
	C578.771240,281.932281 578.625366,294.164215 578.212708,306.707947 
z"/>
<path fill="#DBEBE1" opacity="1.000000" stroke="none" 
	d="
M578.221436,339.703003 
	C577.876953,331.312103 577.809692,322.608307 577.838928,313.442993 
	C578.290283,316.354919 578.906128,319.725677 578.940369,323.102386 
	C578.995300,328.529572 578.665771,333.960663 578.221436,339.703003 
z"/>
<path fill="#DBEBE1" opacity="1.000000" stroke="none" 
	d="
M578.221313,360.703430 
	C577.879822,354.979370 577.815735,348.942841 577.848022,342.445374 
	C578.129150,348.119934 578.313904,354.255463 578.221313,360.703430 
z"/>
<path fill="#D4DBDA" opacity="1.000000" stroke="none" 
	d="
M936.136963,383.184113 
	C937.405823,384.965210 938.625610,387.146362 939.892578,389.673279 
	C938.655823,387.874084 937.371826,385.729126 936.136963,383.184113 
z"/>
<path fill="#D4DBDA" opacity="1.000000" stroke="none" 
	d="
M932.141113,375.160522 
	C933.063843,376.302856 933.945923,377.818726 934.863037,379.667847 
	C933.965637,378.512054 933.033081,377.023071 932.141113,375.160522 
z"/>
<path fill="#D4DBDA" opacity="1.000000" stroke="none" 
	d="
M930.108765,371.190125 
	C930.807007,371.955078 931.473877,373.088043 932.196899,374.552551 
	C931.527771,373.775452 930.802551,372.666779 930.108765,371.190125 
z"/>
<path fill="#DBEBE1" opacity="1.000000" stroke="none" 
	d="
M578.168335,265.862366 
	C577.914734,265.557129 577.862488,265.100067 577.954956,264.325714 
	C578.189697,264.575775 578.279602,265.143188 578.168335,265.862366 
z"/>
<path fill="#D4DBDA" opacity="1.000000" stroke="none" 
	d="
M929.150635,369.129669 
	C929.479797,369.309723 929.806213,369.811066 930.171814,370.622314 
	C929.856689,370.438446 929.502319,369.944702 929.150635,369.129669 
z"/>
<path fill="#D4DBDA" opacity="1.000000" stroke="none" 
	d="
M935.135376,380.973694 
	C935.475037,381.172333 935.820435,381.714050 936.214844,382.583588 
	C935.889648,382.379883 935.515320,381.848328 935.135376,380.973694 
z"/>
<path fill="#DBEBE1" opacity="1.000000" stroke="none" 
	d="
M1253.875000,319.773682 
	C1253.652710,319.850769 1253.303955,319.723419 1252.972412,319.292847 
	C1253.287598,319.123596 1253.540649,319.316833 1253.875000,319.773682 
z"/>
<path fill="#D8DAD6" opacity="1.000000" stroke="none" 
	d="
M958.687012,322.665558 
	C952.836182,328.400238 945.866211,331.594177 938.308899,331.832642 
	C921.573853,332.360718 904.810608,331.997009 887.848389,331.997009 
	C887.848389,309.405212 887.848389,286.510345 887.848389,264.052094 
	C905.716980,264.052094 923.383179,263.027496 940.868896,264.364258 
	C955.859985,265.510284 964.517761,276.037628 966.179199,291.329926 
	C967.391968,302.492493 966.907593,313.341858 958.687012,322.665558 
z"/>
<path fill="#D3DDDC" opacity="1.000000" stroke="none" 
	d="
M892.200073,535.737122 
	C885.788635,535.907227 879.796570,535.891357 873.813232,536.112183 
	C870.678223,536.227905 869.805481,534.827881 869.852783,531.931763 
	C869.972229,524.611023 869.982605,517.285156 869.844666,509.964966 
	C869.788086,506.962555 870.856750,505.780457 873.900635,505.888153 
	C878.721130,506.058685 883.553101,505.870636 888.377930,505.959381 
	C896.564697,506.109955 901.871704,510.130585 902.947754,516.868042 
	C904.538696,526.829712 901.304077,532.713684 892.200073,535.737122 
z"/>
<path fill="#D4DBDA" opacity="1.000000" stroke="none" 
	d="
M483.083801,563.890381 
	C483.083710,546.074829 483.223663,528.743835 482.991791,511.417755 
	C482.931854,506.938873 484.396179,505.405151 488.728882,505.890686 
	C491.362671,506.185760 494.056824,505.895386 496.720245,505.981049 
	C507.463745,506.326630 514.336426,511.667847 516.833496,522.017883 
	C519.407471,532.686646 519.470337,543.469055 516.968018,554.161926 
	C514.329834,565.435242 507.483093,570.806885 495.982941,571.014954 
	C493.817444,571.054138 491.650696,571.036865 489.484589,571.031982 
	C483.119843,571.017639 483.119843,571.014893 483.083801,563.890381 
z"/>
</svg>