<svg version="1.1" id="Layer_1" xmlns="http://www.w3.org/2000/svg" xmlns:xlink="http://www.w3.org/1999/xlink" x="0px" y="0px"
	 width="100%" viewBox="0 0 187 311" enable-background="new 0 0 187 311" xml:space="preserve">
<path fill="#D9DAD7" opacity="1.000000" stroke="none" 
	d="
M101.000000,1.000000 
	C129.987106,1.000000 158.974213,1.000000 187.980652,1.000000 
	C187.980652,104.607674 187.980652,208.215347 187.980652,311.911499 
	C125.753487,311.911499 63.506802,311.911499 1.130060,311.911499 
	C1.130060,208.333435 1.130060,104.666748 1.130060,1.000000 
	C30.421808,1.000000 59.742245,1.000000 89.424316,1.363981 
	C88.616089,2.152678 87.461037,2.625165 86.273605,2.993158 
	C82.711189,4.097174 78.097900,4.126385 75.780548,6.453206 
	C70.845131,11.408792 66.078751,17.066113 63.117641,23.322992 
	C59.193569,31.614614 57.389984,40.635853 62.037231,49.787468 
	C71.135674,67.704605 87.421501,75.302551 105.784096,69.615540 
	C131.970734,61.505390 137.199677,29.951412 120.234299,12.315684 
	C116.578278,8.515219 113.174515,4.326729 107.421608,3.334745 
	C105.212555,2.953833 103.136604,1.801065 101.000000,1.000000 
M150.391693,308.168427 
	C150.977844,308.430969 151.562531,308.918579 152.150345,308.922363 
	C161.467896,308.982513 170.786270,309.023315 180.103058,308.929810 
	C181.081619,308.919983 182.051376,308.034576 183.291962,306.769867 
	C183.217224,306.503632 183.142487,306.237396 183.082611,305.179474 
	C183.031952,304.850647 183.019440,304.510468 182.925262,304.194641 
	C164.212738,241.446442 145.518372,178.692810 126.732292,115.966644 
	C125.181320,110.788017 123.559875,105.466072 120.829605,100.892159 
	C119.842766,99.238953 115.514771,99.299179 112.688705,99.195282 
	C111.835640,99.163910 110.482628,101.073921 110.079033,102.326721 
	C106.990089,111.915298 103.911484,121.514740 101.221046,131.219299 
	C100.470772,133.925598 100.373520,137.171463 101.096352,139.869888 
	C106.084145,158.490051 111.370461,177.030228 116.556664,195.597275 
	C119.172859,204.963470 121.780373,214.332077 124.778648,225.087265 
	C116.967949,225.087265 110.091919,225.087265 102.421768,225.259888 
	C101.958878,226.055588 101.105713,226.845535 101.093903,227.647873 
	C100.984200,235.095398 100.946243,242.546585 101.098099,249.992401 
	C101.118858,251.009903 102.295723,252.003830 103.876518,253.124054 
	C111.867477,253.112701 119.869423,253.344559 127.844650,252.984619 
	C131.675797,252.811722 132.911011,254.348236 133.865997,257.712921 
	C138.445190,273.846680 143.278122,289.908478 148.115463,306.700012 
	C148.746536,306.976105 149.377609,307.252197 150.391693,308.168427 
M39.519444,306.994934 
	C40.373505,303.673737 41.227566,300.352570 42.546055,296.471558 
	C46.647205,282.632233 50.748360,268.792938 55.806103,254.980392 
	C64.126953,254.986328 72.449570,255.084671 80.767265,254.925674 
	C82.584137,254.890961 84.383446,253.937439 86.587433,253.175186 
	C87.037712,252.784332 87.487991,252.393478 88.497475,251.384323 
	C88.305962,243.916000 88.114456,236.447678 87.697418,228.263336 
	C87.744499,227.517593 87.791573,226.771851 88.095383,225.741257 
	C87.842880,225.542511 87.590378,225.343765 87.142807,225.252975 
	C87.142807,225.252975 86.997894,225.083542 86.815773,224.797882 
	C86.548058,224.862503 86.280350,224.927139 85.353928,225.205383 
	C84.902100,225.139664 84.450272,225.073944 83.363007,224.473663 
	C81.395248,224.315826 79.427208,224.161438 77.459793,223.999435 
	C72.875237,223.621948 68.290985,223.240829 63.822788,222.095352 
	C69.823524,201.067932 75.824265,180.040497 82.160248,158.341690 
	C82.776466,155.896301 83.392693,153.450912 84.320251,150.500748 
	C85.214523,145.241455 87.112999,139.918961 86.786819,134.736481 
	C86.172798,124.980942 86.726349,115.479622 88.952339,106.008972 
	C89.473991,103.789597 89.711052,101.503334 90.193367,98.547127 
	C83.663132,98.547127 77.538376,98.751778 71.436401,98.467361 
	C67.991951,98.306816 66.612724,99.423447 65.615814,102.796951 
	C53.926975,142.351700 42.021591,181.842392 30.216356,221.362823 
	C21.792929,249.561951 13.434625,277.780518 4.857707,306.722900 
	C4.892631,306.972565 4.927555,307.222198 5.351595,308.120636 
	C6.096768,308.409668 6.840448,308.945709 7.587342,308.950226 
	C17.076702,309.007599 26.566971,309.029846 36.055561,308.927032 
	C37.035240,308.916443 38.005589,308.044525 39.519444,306.994934 
z"/>
<path fill="#DFD9C3" opacity="1.000000" stroke="none" 
	d="
M100.625000,1.000000 
	C103.136604,1.801065 105.212555,2.953833 107.421608,3.334745 
	C113.174515,4.326729 116.578278,8.515219 120.234299,12.315684 
	C137.199677,29.951412 131.970734,61.505390 105.784096,69.615540 
	C87.421501,75.302551 71.135674,67.704605 62.037231,49.787468 
	C57.389984,40.635853 59.193569,31.614614 63.117641,23.322992 
	C66.078751,17.066113 70.845131,11.408792 75.780548,6.453206 
	C78.097900,4.126385 82.711189,4.097174 86.273605,2.993158 
	C87.461037,2.625165 88.616089,2.152678 89.892975,1.363981 
	C90.444443,1.000000 90.888893,1.000000 91.764687,1.351095 
	C94.371178,3.455865 96.418114,4.149852 98.000000,1.000000 
	C98.750000,1.000000 99.500000,1.000000 100.625000,1.000000 
M99.161957,67.995293 
	C116.814606,65.828598 129.454361,49.180721 126.840660,31.539539 
	C124.185028,13.615267 107.138000,1.878631 88.490105,5.135727 
	C71.602051,8.085445 59.810692,25.983215 63.475460,43.003670 
	C66.517075,57.129982 79.639626,69.777374 99.161957,67.995293 
z"/>
<path fill="#D9DAD7" opacity="1.000000" stroke="none" 
	d="
M97.571533,1.000000 
	C96.418114,4.149852 94.371178,3.455865 92.098022,1.351095 
	C93.714355,1.000000 95.428719,1.000000 97.571533,1.000000 
z"/>
<path fill="#1E4C33" opacity="1.000000" stroke="none" 
	d="
M54.849514,254.953613 
	C50.748360,268.792938 46.647205,282.632233 41.951309,296.801941 
	C39.909149,300.078888 38.461742,303.025482 36.544289,305.981354 
	C31.258467,305.992950 26.437542,305.859741 21.628611,306.042328 
	C18.068230,306.177490 14.523446,306.723480 10.572917,307.205200 
	C8.797592,307.248444 7.421063,307.172943 5.920876,306.876770 
	C5.547232,306.434204 5.297247,306.212311 5.047262,305.990417 
	C13.434625,277.780518 21.792929,249.561951 30.216356,221.362823 
	C42.021591,181.842392 53.926975,142.351700 65.615814,102.796951 
	C66.612724,99.423447 67.991951,98.306816 71.436401,98.467361 
	C77.538376,98.751778 83.663132,98.547127 90.193367,98.547127 
	C89.711052,101.503334 89.473991,103.789597 88.952339,106.008972 
	C86.726349,115.479622 86.172798,124.980942 86.786819,134.736481 
	C87.112999,139.918961 85.214523,145.241455 83.766739,150.758514 
	C78.924408,150.708496 80.322670,154.486664 79.494453,156.530563 
	C79.315994,156.970963 80.999283,158.165771 81.824997,159.013077 
	C75.824265,180.040497 69.823524,201.067932 63.480865,222.775406 
	C64.010010,224.054092 64.874947,225.159225 65.753143,225.169830 
	C71.833366,225.243469 77.916351,225.089264 83.998444,225.008209 
	C84.450272,225.073944 84.902100,225.139664 85.924866,225.171539 
	C86.663170,225.119629 86.830536,225.101593 86.997894,225.083542 
	C86.997894,225.083542 87.142807,225.252975 87.323608,225.443329 
	C87.615814,225.764496 87.727234,225.895294 87.838654,226.026108 
	C87.791573,226.771851 87.744499,227.517593 87.717300,229.083511 
	C87.804207,237.270004 87.871239,244.636307 87.938271,252.002625 
	C87.487991,252.393478 87.037712,252.784332 85.935829,253.202972 
	C76.406319,253.205734 67.527390,253.108780 58.651672,253.236160 
	C57.376331,253.254471 56.116512,254.354294 54.849514,254.953613 
z"/>
<path fill="#1F4D33" opacity="1.000000" stroke="none" 
	d="
M103.215881,225.087265 
	C110.091919,225.087265 116.967949,225.087265 124.778648,225.087265 
	C121.780373,214.332077 119.172859,204.963470 116.556664,195.597275 
	C111.370461,177.030228 106.084145,158.490051 101.096352,139.869888 
	C100.373520,137.171463 100.470772,133.925598 101.221046,131.219299 
	C103.911484,121.514740 106.990089,111.915298 110.079033,102.326721 
	C110.482628,101.073921 111.835640,99.163910 112.688705,99.195282 
	C115.514771,99.299179 119.842766,99.238953 120.829605,100.892159 
	C123.559875,105.466072 125.181320,110.788017 126.732292,115.966644 
	C145.518372,178.692810 164.212738,241.446442 182.925262,304.194641 
	C183.019440,304.510468 183.031952,304.850647 182.852325,305.720520 
	C182.402634,306.537598 182.183212,306.813660 181.651016,307.209961 
	C180.905914,307.251434 180.473618,307.172638 179.728012,306.812927 
	C168.950119,306.353302 158.485519,306.174561 148.020920,305.995819 
	C143.278122,289.908478 138.445190,273.846680 133.865997,257.712921 
	C132.911011,254.348236 131.675797,252.811722 127.844650,252.984619 
	C119.869423,253.344559 111.867477,253.112701 103.377167,252.598328 
	C102.990494,243.077499 103.103188,234.082382 103.215881,225.087265 
z"/>
<path fill="#DCECE1" opacity="1.000000" stroke="none" 
	d="
M6.044535,307.097443 
	C7.421063,307.172943 8.797592,307.248444 11.034065,307.308472 
	C20.930782,307.185669 29.967552,307.078339 38.916889,307.118042 
	C38.829456,307.265076 38.980263,307.572235 38.980263,307.572235 
	C38.005589,308.044525 37.035240,308.916443 36.055561,308.927032 
	C26.566971,309.029846 17.076702,309.007599 7.587342,308.950226 
	C6.840448,308.945709 6.096768,308.409668 5.438122,307.733337 
	C5.697944,307.263184 5.871240,307.180298 6.044535,307.097443 
z"/>
<path fill="#DCEDE2" opacity="1.000000" stroke="none" 
	d="
M180.041306,307.093842 
	C180.473618,307.172638 180.905914,307.251434 181.912018,307.336609 
	C182.665604,307.413788 182.845413,307.484589 183.025223,307.555389 
	C182.051376,308.034576 181.081619,308.919983 180.103058,308.929810 
	C170.786270,309.023315 161.467896,308.982513 152.150345,308.922363 
	C151.562531,308.918579 150.977844,308.430969 150.663879,307.782593 
	C160.637817,307.295807 170.339569,307.194824 180.041306,307.093842 
z"/>
<path fill="#D8E7DD" opacity="1.000000" stroke="none" 
	d="
M102.818825,225.173584 
	C103.103188,234.082382 102.990494,243.077499 102.907562,252.540649 
	C102.295723,252.003830 101.118858,251.009903 101.098099,249.992401 
	C100.946243,242.546585 100.984200,235.095398 101.093903,227.647873 
	C101.105713,226.845535 101.958878,226.055588 102.818825,225.173584 
z"/>
<path fill="#DAE8DE" opacity="1.000000" stroke="none" 
	d="
M55.327808,254.967010 
	C56.116512,254.354294 57.376331,253.254471 58.651672,253.236160 
	C67.527390,253.108780 76.406319,253.205734 85.737534,253.318909 
	C84.383446,253.937439 82.584137,254.890961 80.767265,254.925674 
	C72.449570,255.084671 64.126953,254.986328 55.327808,254.967010 
z"/>
<path fill="#1C3B29" opacity="1.000000" stroke="none" 
	d="
M179.728012,306.812927 
	C170.339569,307.194824 160.637817,307.295807 150.472382,307.462524 
	C149.377609,307.252197 148.746536,306.976105 148.068192,306.347900 
	C158.485519,306.174561 168.950119,306.353302 179.728012,306.812927 
z"/>
<path fill="#2E553E" opacity="1.000000" stroke="none" 
	d="
M81.992622,158.677383 
	C80.999283,158.165771 79.315994,156.970963 79.494453,156.530563 
	C80.322670,154.486664 78.924408,150.708496 83.611069,151.010895 
	C83.392693,153.450912 82.776466,155.896301 81.992622,158.677383 
z"/>
<path fill="#2D5239" opacity="1.000000" stroke="none" 
	d="
M37.014324,305.972046 
	C38.461742,303.025482 39.909149,300.078888 41.719093,297.081848 
	C41.227566,300.352570 40.373505,303.673737 39.249855,307.283569 
	C38.980263,307.572235 38.829456,307.265076 38.727348,306.899414 
	C38.088268,306.346527 37.551292,306.159302 37.014324,305.972046 
z"/>
<path fill="#DBECE0" opacity="1.000000" stroke="none" 
	d="
M88.217880,251.693481 
	C87.871239,244.636307 87.804207,237.270004 87.830063,229.441528 
	C88.114456,236.447678 88.305962,243.916000 88.217880,251.693481 
z"/>
<path fill="#D9EADF" opacity="1.000000" stroke="none" 
	d="
M83.680725,224.740936 
	C77.916351,225.089264 71.833366,225.243469 65.753143,225.169830 
	C64.874947,225.159225 64.010010,224.054092 63.422775,223.158310 
	C68.290985,223.240829 72.875237,223.621948 77.459793,223.999435 
	C79.427208,224.161438 81.395248,224.315826 83.680725,224.740936 
z"/>
<path fill="#1D3B28" opacity="1.000000" stroke="none" 
	d="
M5.920876,306.876770 
	C5.871240,307.180298 5.697944,307.263184 5.243564,307.408936 
	C4.927555,307.222198 4.892631,306.972565 4.952485,306.356659 
	C5.297247,306.212311 5.547232,306.434204 5.920876,306.876770 
z"/>
<path fill="#1C3B29" opacity="1.000000" stroke="none" 
	d="
M183.158600,307.162628 
	C182.845413,307.484589 182.665604,307.413788 182.224792,307.216339 
	C182.183212,306.813660 182.402634,306.537598 182.844910,306.116333 
	C183.142487,306.237396 183.217224,306.503632 183.158600,307.162628 
z"/>
<path fill="#DBECE0" opacity="1.000000" stroke="none" 
	d="
M87.967018,225.883682 
	C87.727234,225.895294 87.615814,225.764496 87.421135,225.389359 
	C87.590378,225.343765 87.842880,225.542511 87.967018,225.883682 
z"/>
<path fill="#D9EADF" opacity="1.000000" stroke="none" 
	d="
M86.906830,224.940704 
	C86.830536,225.101593 86.663170,225.119629 86.254211,225.064728 
	C86.280350,224.927139 86.548058,224.862503 86.906830,224.940704 
z"/>
<path fill="#CDAD48" opacity="1.000000" stroke="none" 
	d="
M98.706299,68.012482 
	C79.639626,69.777374 66.517075,57.129982 63.475460,43.003670 
	C59.810692,25.983215 71.602051,8.085445 88.490105,5.135727 
	C107.138000,1.878631 124.185028,13.615267 126.840660,31.539539 
	C129.454361,49.180721 116.814606,65.828598 98.706299,68.012482 
z"/>
<path fill="#1D3B28" opacity="1.000000" stroke="none" 
	d="
M36.544281,305.981384 
	C37.551292,306.159302 38.088268,306.346527 38.814781,306.752380 
	C29.967552,307.078339 20.930782,307.185669 11.432863,307.189697 
	C14.523446,306.723480 18.068230,306.177490 21.628611,306.042328 
	C26.437542,305.859741 31.258467,305.992950 36.544281,305.981384 
z"/>
</svg>